<?xml version="1.0" encoding="UTF-8"?>
<!DOCTYPE svg PUBLIC "-//W3C//DTD SVG 1.1//EN" "http://www.w3.org/Graphics/SVG/1.1/DTD/svg11.dtd">
<!-- Creator: CorelDRAW 2019 (64-Bit) -->
<svg xmlns="http://www.w3.org/2000/svg" xml:space="preserve" width="3.53575in" height="3.53575in" version="1.1" style="shape-rendering:geometricPrecision; text-rendering:geometricPrecision; image-rendering:optimizeQuality; fill-rule:evenodd; clip-rule:evenodd"
viewBox="0 0 551.15 551.15"
 xmlns:xlink="http://www.w3.org/1999/xlink">
 <defs>
  <style type="text/css">
   <![CDATA[
    .fil1 {fill:whitesmoke}
    .fil0 {fill:#2C2D3F}
    .fil2 {fill:#A7CC48}
   ]]>
  </style>
 </defs>
 <g id="Layer_x0020_1">
  <metadata id="CorelCorpID_0Corel-Layer"/>
  <rect class="fil0" x="-0" y="-0" width="551.15" height="551.15"/>
  <g id="_1653845186160">
   <path class="fil1" d="M189.17 216.28c0.33,-1.22 3.25,-4.86 4.01,-5.85 6.43,-8.26 34.56,-32.65 40.6,-23.86 6.82,9.94 -18.42,25.22 -27.88,28.11 -3.25,0.99 -13.45,3.52 -16.73,1.59zm-65 124.27l0 7.7c0.87,1.93 0.7,20.87 18.07,29.93 6.72,3.51 12.45,3.16 20.89,2.62 6.83,-0.44 14.24,-1.58 20.48,-3.32 5.23,-1.47 12.48,-4.11 18.15,-5.94l36.03 -11.93c5.98,-2.02 11.94,-3.89 17.92,-5.93 12.05,-4.11 23.98,-7.84 36.01,-11.86 15.25,-5.09 22.43,-7.2 38.91,-9.08 15.65,-1.78 29.13,-0.36 41.3,5.31 8.96,4.17 15.38,10.78 14.86,20.92 -0.29,5.61 -1.89,6.23 -3.12,8.71 0.07,0.05 0.17,0.1 0.23,0.13 0.06,0.03 0.15,0.09 0.23,0.12l1.42 0.3c4.43,0.34 9.43,-0.05 13.15,-2.16 3.82,-2.16 5.15,-6.86 3.99,-12.48 -1.66,-8.04 -8.03,-16.14 -14.12,-20.69 -12.78,-9.55 -34.15,-14.86 -54.69,-14.92 -11.52,-0.03 -21.29,0.98 -31.96,2.82 -10.04,1.73 -18.62,4.57 -27.8,7.06 -28.47,7.73 -52.36,15.28 -79.88,24.44 -4.37,1.45 -8.21,3.28 -13.02,4.36 -13.68,3.09 -31.9,3.7 -35.77,-12.8 -4.13,-17.57 11.08,-36.1 21.18,-47.25 6.74,-7.44 4.86,-7.11 9.73,-6.12 4.77,0.97 11.22,1.52 16.09,0.54 4.92,-0.99 7.42,-3.41 9.96,-7.43 4.46,-7.06 4.62,-12.52 -1.66,-18.29 -2.02,-1.85 -2.98,-2 -6.4,-2.42 -2.65,-0.33 -5.6,-0.29 -8.27,0.09 -2.51,0.36 -5.37,1.7 -7.41,1.73 -1.05,-2.43 -2.01,-3.13 -3.2,-7.18 -0.85,-2.89 -1.23,-5.97 -1.13,-9.29 0.16,-5.44 2.24,-12.82 4.52,-16.17 2.86,-0.23 6.27,-0.08 9.23,-0.21 16.86,-0.73 36.26,-8.65 48.92,-17.96 1.94,-1.43 3.25,-2.8 5.04,-4.5 4.38,-4.16 9.77,-10.57 12.28,-16.31 2.13,-4.88 3.03,-10.71 0.53,-15.82 -3.48,-7.13 -9.22,-6.12 -11.82,-7.25l-5.52 0c-1.09,0.52 -4.85,0.81 -6.24,1.14 -12.37,2.91 -23.85,9.05 -34.14,16.04 -0.8,0.54 -1.26,0.81 -2.16,1.48 -4.79,3.56 -9.34,7.21 -13.61,11.33 -3.48,3.35 -10.29,11.04 -12.25,16.34 -14.46,0 -25.57,-6.14 -34.84,-16.62 -4.08,-4.61 -4.86,-7.39 -7.01,-10.13l-0.56 0.88c-0.01,0.03 -0.21,0.82 -0.22,0.9 -4.4,18.7 10.94,30.43 27.14,35.63 1.31,0.42 6.12,1.67 6.99,2.16 -0.25,1.29 -1.59,3.85 -2.16,5.38 -0.69,1.86 -1.26,3.75 -1.86,5.77 -2.34,7.92 -2.76,18.31 0.15,26.05 1.6,4.26 3.46,6.41 5.46,9.34 -0.76,0.77 -2.56,2.06 -3.53,2.82 -6.09,4.73 -10.87,10.54 -15.66,16.56 -1.89,2.38 -3.6,5.03 -5.2,7.71 -5.42,9.05 -11.13,21.35 -12.8,32.33 -0.24,1.6 -0.23,4.07 -0.83,5.42z"/>
   <path class="fil1" d="M382.3 284.79c-0.1,-9.45 9.83,-25.77 19.26,-18.15 5.61,4.53 -2.3,9.63 -5.14,11.58 -1.87,1.29 -11.69,6.46 -14.11,6.57zm44.67 -28.26l0 -4.77c-0.04,-0.07 -0.09,-0.27 -0.1,-0.23 -0.02,0.04 -0.08,-0.17 -0.1,-0.22 -0.87,-2.46 -0.41,-3.47 -2.59,-7.33 -3.64,-6.47 -10.77,-11.43 -18.55,-13.38 -9.79,-2.45 -29.1,-3.3 -39.9,-2.24l2.49 -11.51c-5.08,-0.28 -9.99,0.47 -13.1,2.72 -4.57,3.32 -2.95,10.52 -5.35,11.46l-12.72 1.89c-4.45,0.9 -23.03,7.35 -20.47,-5.87 0.42,-2.17 1.81,-3.86 3.24,-4.62 2.24,-1.2 3.95,-0.52 6.14,-0.07 0.63,-6.16 -7.9,-11.27 -15.85,-5.17 -9.26,7.11 -7.75,29.9 15.84,25.47l16.8 -2.88c7.39,-1.23 6.07,-3.64 2.97,11.86 -0.88,4.41 -1.86,9.01 -2.65,13.32 -0.8,4.37 -1.83,8.74 -2.67,13.06 -1.66,8.5 0.64,5.85 -5.82,10.17 -2.1,1.41 -7.68,4.93 -11.5,3.36 -4.25,-1.74 -3.44,-7.3 -2.77,-12.25 0.63,-4.61 1.41,-8.99 2.27,-13.59 0.52,-2.74 2.56,-11.36 2.68,-13.26 -3.3,-1.84 -10.06,-0.16 -13.58,4.43 -3.2,4.17 -5.81,16.59 -6.02,22.75 -0.2,5.94 0.94,5.63 -1.7,8.23 -2.92,2.87 -6.72,6.15 -11.28,8.07 -4.98,2.1 -11.5,1.41 -14.6,-1.99 -2.89,-3.17 -3.04,-11.14 -1.92,-16.17 1.65,-7.42 10.51,-22.35 17.23,-13.74 0.9,1.15 0.25,0.93 1.72,1.28 0.88,-2.55 5.74,-9.9 -5.09,-11.58 -6.29,-0.98 -12.6,0.85 -16.11,3.81 -6.39,5.39 -12.41,15.63 -12.37,28.28 0.02,7.66 2.68,17.59 9.35,20.96 7.66,3.87 17.08,-0.16 23.61,-4l9.2 -5.91c1.06,-0.76 2.08,-1.75 3.26,-2.18l0.22 0.45c1.03,2.56 0.9,4.42 5.33,6.7 2.8,1.44 7,2.38 10.49,1.1 2.64,-0.97 5.6,-3.18 7.93,-4.64 1.62,-1.02 6.69,-4.47 7.99,-4.89 0.97,1.7 0.31,10.72 12.06,10.65 5.14,-0.03 9.36,-1.49 13.79,-3.35 0.79,-0.33 1.3,-0.55 1.92,-0.87 0.92,-0.48 1.15,-0.73 2.34,-0.95 1.31,4.24 4.94,8.3 8.15,10.04 16.46,8.89 36.06,-10.33 34.47,-15.08 -5.17,-1.38 -15.98,13.32 -26.06,5.03 -1.63,-1.34 -4.12,-4.72 -3.99,-7.95 9.14,-3.34 30.97,-12.45 30.33,-23.9 -0.27,-4.79 -4.53,-8.73 -8.42,-9.93 -13.13,-4.05 -28.25,6.79 -33.77,18.88 -2.19,4.79 -2.54,9.87 -2.35,15.93 -2.16,0.62 -5.93,2.78 -8.07,3.03 -3.75,0.43 -6.37,-0.85 -7.16,-3.76 -0.78,-2.86 2.59,-15.11 3.34,-18.47l8.21 -35.76c0.15,-0.35 0.23,-0.43 0.34,-0.59 3.25,-1.16 16.07,-0.43 20.13,0.13 6.39,0.87 11.55,1.87 17.28,3.63 7.59,2.33 14.73,6.19 20.21,11.21 1.11,1.02 1.66,1.48 2.66,2.66 0.65,0.78 1.65,2.33 2.63,2.58z"/>
   <path class="fil2" d="M238.57 270.05l-4.62 -5.42c-1.56,-1.8 -3.29,-3.48 -5.36,-5.02 -3.05,-2.27 -10.87,-5.77 -15.94,-3.7 -0.02,1.8 4.14,7.44 5.28,9.01l11.41 16.65c2.19,3.16 2.38,2.57 1.4,4.52l-12.02 23.36c-2.27,4.64 -4.92,9.12 -7.38,13.66 -0.86,1.59 -2.47,3.19 -2.27,5.1 8.55,3.41 17.98,-11.18 21.75,-16.23 2.09,-2.8 8.57,-13.55 9.6,-14.18 2.27,3.45 4.46,6.77 6.91,10.36l6.13 9.29c0.55,0.82 0.44,0.78 1.09,1.22 2.26,0.62 9.43,-8.11 1.88,-22.4 -1.58,-2.99 -5.64,-9.09 -7.74,-11.9 -0.86,-1.15 -1.04,-1.21 -0.43,-2.58 2.72,-6.16 4.82,-10.96 4.9,-18.42 0.04,-3.79 -1.01,-10.71 -3.18,-12.56 -1.71,-1.46 -2.88,2.31 -3.53,3.66 -0.85,1.74 -1.66,3.4 -2.53,5.25 -0.74,1.58 -4.67,9.63 -5.35,10.32z"/>
  </g>
 </g>
</svg>
