<?xml version="1.0" encoding="UTF-8"?>
<!DOCTYPE svg PUBLIC "-//W3C//DTD SVG 1.1//EN" "http://www.w3.org/Graphics/SVG/1.1/DTD/svg11.dtd">
<!-- Creator: CorelDRAW 2018 (64-Bit Evaluation Version) -->
<svg xmlns="http://www.w3.org/2000/svg" xml:space="preserve" width="4.16667in" height="4.16667in" version="1.1" style="shape-rendering:geometricPrecision; text-rendering:geometricPrecision; image-rendering:optimizeQuality; fill-rule:evenodd; clip-rule:evenodd"
viewBox="0 0 1776.54 1776.54"
 xmlns:xlink="http://www.w3.org/1999/xlink">
 <defs>
  <style type="text/css">
   <![CDATA[
    .fil2 {fill:none}
    .fil0 {fill:#FEFEFE}
    .fil1 {fill:#A6CC46}
   ]]>
  </style>
     <clipPath id="id0">
      <path d="M12.26 258.88l1760.64 47.1 0 1255.72 -1760.64 -47.1 0 -1255.72z"/>
     </clipPath>
 </defs>
 <g id="Layer_x0020_1">
  <metadata id="CorelCorpID_0Corel-Layer"/>
  <g id="_1806560346336">
   <g>
    <g style="clip-path:url(#id0)">
     <image x="12.26" y="258.88" width="1760.64" height="1302.82" xlink:href="Xcite 1250px_Images\Xcite 1250px_ImgID1.png"/>
    </g>
   </g>
   <g>
    <path class="fil0" d="M421.08 567.63c1.79,-6.62 17.57,-26.3 21.7,-31.61 34.77,-44.67 186.89,-176.57 219.53,-129.01 36.87,53.72 -99.6,136.37 -150.75,152.01 -17.59,5.38 -72.72,19.05 -90.48,8.61zm-351.44 671.96l0 41.63c4.7,10.43 3.8,112.83 97.7,161.84 36.32,18.96 67.29,17.09 112.96,14.14 36.94,-2.38 77,-8.52 110.74,-17.98 28.28,-7.93 67.47,-22.2 98.16,-32.12l194.81 -64.5c32.33,-10.95 64.54,-21.02 96.9,-32.06 65.17,-22.23 129.68,-42.4 194.7,-64.11 82.46,-27.54 121.27,-38.94 210.38,-49.1 84.62,-9.65 157.5,-1.94 223.33,28.69 48.43,22.54 83.16,58.28 80.37,113.14 -1.54,30.32 -10.21,33.67 -16.88,47.11 0.38,0.28 0.91,0.54 1.24,0.69 0.33,0.15 0.84,0.47 1.25,0.64l7.65 1.6c23.98,1.86 50.97,-0.25 71.13,-11.67 20.64,-11.69 27.87,-37.1 21.6,-67.5 -8.96,-43.46 -43.4,-87.27 -76.33,-111.88 -69.11,-51.64 -184.63,-80.35 -295.74,-80.67 -62.3,-0.18 -115.14,5.31 -172.8,15.25 -54.31,9.36 -100.69,24.7 -150.31,38.17 -153.94,41.78 -283.1,82.62 -431.91,132.15 -23.63,7.86 -44.41,17.72 -70.38,23.6 -73.95,16.73 -172.46,20.03 -193.44,-69.2 -22.33,-94.99 59.92,-195.21 114.52,-255.5 36.44,-40.23 26.26,-38.45 52.6,-33.1 25.79,5.24 60.69,8.22 87,2.93 26.61,-5.35 40.12,-18.46 53.86,-40.2 24.12,-38.16 24.97,-67.72 -8.99,-98.88 -10.91,-10 -16.1,-10.79 -34.6,-13.07 -14.32,-1.76 -30.3,-1.59 -44.7,0.49 -13.59,1.97 -29.02,9.18 -40.06,9.35 -5.69,-13.14 -10.89,-16.95 -17.29,-38.82 -4.57,-15.62 -6.65,-32.26 -6.11,-50.25 0.87,-29.42 12.1,-69.31 24.43,-87.43 15.45,-1.26 33.89,-0.42 49.88,-1.11 91.19,-3.93 196.07,-46.79 264.54,-97.14 10.48,-7.71 17.57,-15.16 27.23,-24.32 23.7,-22.47 52.82,-57.17 66.38,-88.18 11.52,-26.37 16.36,-57.89 2.87,-85.52 -18.84,-38.56 -49.87,-33.09 -63.94,-39.21l-29.82 0c-5.9,2.79 -26.2,4.4 -33.75,6.17 -66.87,15.71 -128.98,48.95 -184.61,86.75 -4.33,2.94 -6.81,4.4 -11.65,8 -25.9,19.25 -50.49,39 -73.62,61.29 -18.82,18.13 -55.66,59.67 -66.25,88.37 -78.17,0 -138.28,-33.18 -188.39,-89.87 -22.04,-24.94 -26.3,-39.93 -37.93,-54.75l-3.01 4.75c-0.07,0.19 -1.11,4.43 -1.21,4.85 -23.79,101.08 59.16,164.53 146.73,192.63 7.07,2.27 33.09,9.04 37.79,11.69 -1.38,6.95 -8.57,20.81 -11.66,29.1 -3.75,10.06 -6.81,20.25 -10.04,31.19 -12.64,42.84 -14.93,99.02 0.82,140.87 8.66,23.01 18.71,34.68 29.52,50.49 -4.1,4.18 -13.82,11.14 -19.08,15.23 -32.93,25.6 -58.79,56.98 -84.7,89.55 -10.23,12.86 -19.48,27.19 -28.14,41.66 -29.29,48.94 -60.19,115.43 -69.23,174.82 -1.32,8.66 -1.24,22.02 -4.47,29.3z"/>
    <path class="fil0" d="M1465.37 938.09c-0.55,-51.1 53.15,-139.35 104.12,-98.15 30.32,24.51 -12.45,52.09 -27.81,62.62 -10.14,6.96 -63.19,34.93 -76.32,35.53zm241.53 -152.79l0 -25.79c-0.22,-0.39 -0.47,-1.45 -0.56,-1.22 -0.08,0.22 -0.42,-0.91 -0.53,-1.22 -4.68,-13.29 -2.22,-18.75 -13.98,-39.65 -19.67,-34.96 -58.23,-61.83 -100.28,-72.35 -52.93,-13.25 -157.37,-17.84 -215.77,-12.11l13.46 -62.22c-27.49,-1.51 -54.02,2.54 -70.81,14.72 -24.71,17.93 -15.93,56.86 -28.93,61.98l-68.75 10.22c-24.05,4.85 -124.54,39.74 -110.68,-31.75 2.27,-11.73 9.77,-20.85 17.52,-25 12.11,-6.49 21.36,-2.79 33.21,-0.4 3.38,-33.33 -42.7,-60.96 -85.7,-27.94 -50.1,38.46 -41.88,161.65 85.65,137.7l90.82 -15.57c39.93,-6.64 32.81,-19.69 16.03,64.11 -4.78,23.85 -10.05,48.73 -14.32,72.01 -4.34,23.62 -9.9,47.25 -14.45,70.62 -8.95,45.94 3.48,31.65 -31.48,55.01 -11.37,7.6 -41.5,26.63 -62.18,18.16 -22.97,-9.42 -18.61,-39.45 -14.97,-66.25 3.38,-24.92 7.62,-48.64 12.28,-73.46 2.79,-14.84 13.87,-61.42 14.5,-71.72 -17.83,-9.96 -54.41,-0.85 -73.42,23.95 -17.3,22.56 -31.39,89.73 -32.54,123.03 -1.11,32.14 5.1,30.42 -9.21,44.49 -15.78,15.5 -36.33,33.23 -60.99,43.62 -26.93,11.35 -62.18,7.62 -78.93,-10.73 -15.64,-17.14 -16.43,-60.23 -10.39,-87.44 8.91,-40.15 56.8,-120.83 93.16,-74.31 4.85,6.21 1.34,5.02 9.3,6.94 4.76,-13.79 31.03,-53.52 -27.5,-62.64 -34,-5.3 -68.14,4.57 -87.1,20.58 -34.53,29.15 -67.11,84.52 -66.91,152.91 0.12,41.4 14.5,95.09 50.55,113.32 41.4,20.94 92.33,-0.85 127.65,-21.63l49.76 -31.94c5.75,-4.1 11.25,-9.47 17.62,-11.8l1.19 2.41c5.59,13.82 4.87,23.91 28.83,36.21 15.14,7.77 37.86,12.84 56.7,5.95 14.28,-5.22 30.28,-17.18 42.88,-25.1 8.76,-5.51 36.18,-24.15 43.22,-26.45 5.27,9.19 1.65,57.97 65.21,57.58 27.77,-0.17 50.59,-8.05 74.55,-18.1 4.25,-1.78 7.05,-2.96 10.36,-4.68 4.97,-2.58 6.21,-3.94 12.67,-5.15 7.11,22.94 26.71,44.9 44.09,54.29 89,48.05 194.96,-55.88 186.38,-81.53 -27.97,-7.44 -86.4,72.02 -140.9,27.2 -8.8,-7.24 -22.25,-25.49 -21.57,-42.98 49.4,-18.04 167.44,-67.34 163.99,-129.23 -1.44,-25.88 -24.5,-47.2 -45.51,-53.68 -71.01,-21.89 -152.74,36.7 -182.62,102.06 -11.83,25.88 -13.72,53.38 -12.71,86.11 -11.68,3.37 -32.09,15.03 -43.65,16.37 -20.29,2.35 -34.42,-4.6 -38.69,-20.34 -4.19,-15.44 14.01,-81.71 18.06,-99.86l44.41 -193.38c0.82,-1.91 1.22,-2.34 1.81,-3.2 17.59,-6.28 86.89,-2.3 108.83,0.69 34.53,4.71 62.47,10.1 93.45,19.61 41.07,12.62 79.67,33.48 109.27,60.59 6,5.5 9,7.99 14.38,14.4 3.53,4.2 8.9,12.61 14.22,13.95z"/>
    <path class="fil1" d="M688.16 858.38l-24.96 -29.29c-8.46,-9.75 -17.76,-18.8 -28.97,-27.15 -16.51,-12.3 -58.75,-31.22 -86.18,-20.03 -0.13,9.73 22.4,40.26 28.57,48.75l61.69 90c11.87,17.1 12.87,13.92 7.57,24.43l-65.01 126.31c-12.29,25.09 -26.59,49.31 -39.9,73.86 -4.67,8.61 -13.33,17.23 -12.3,27.58 46.22,18.43 97.23,-60.43 117.63,-87.73 11.32,-15.15 46.33,-73.25 51.89,-76.67 12.3,18.64 24.14,36.61 37.35,56.04l33.12 50.21c2.98,4.45 2.37,4.23 5.92,6.62 12.24,3.33 50.96,-43.88 10.18,-121.1 -8.52,-16.14 -30.48,-49.17 -41.87,-64.32 -4.66,-6.21 -5.6,-6.56 -2.34,-13.96 14.7,-33.3 26.06,-59.26 26.49,-99.62 0.22,-20.5 -5.44,-57.93 -17.19,-67.92 -9.26,-7.88 -15.55,12.49 -19.09,19.78 -4.57,9.4 -8.99,18.39 -13.69,28.39 -4.01,8.54 -25.26,52.07 -28.9,55.81z"/>
   </g>
   <rect class="fil2" x="0" y="0" width="1776.54" height="1776.54"/>
  </g>
 </g>
</svg>
